<svg xmlns="http://www.w3.org/2000/svg" viewBox="0 0 15927.9403 4342.39787"><defs><style>.cls-1{fill:#fff;}.cls-2{fill:none;stroke:#e8e7e7;stroke-miterlimit:10;}</style></defs><g id="Layer_2" data-name="Layer 2"><g id="Layer_1-2" data-name="Layer 1"><g id="YANGYUEN_WHITE" data-name="YANGYUEN WHITE"><path class="cls-1" d="M5418.84166,2763.13411q-51.49218,0-79.28125-18.14062-27.79687-18.14062-27.79687-51.84375V2282.306l47.35937,85.54687-508.57812-444.53125q-22.66407-19.42968-20.59375-40.8125,2.0625-21.375,27.79687-36.29687,25.73438-14.90625,68.98438-14.90625,32.92968,0,60.73437,10.375,27.79688,10.35938,52.5,32.39062l407.6875,356.40625h-49.40625l407.6875-356.40625q26.76563-23.3203,51.46875-33.04687,24.70313-9.70312,61.76563-9.71875,43.24218,0,66.92187,13.60937,23.67188,13.6172,24.70313,35,1.03125,21.375-25.73438,44.70313l-504.45312,443.23437,43.23437-85.54687v410.84375Q5523.84166,2763.13412,5418.84166,2763.13411Z"/><path class="cls-1" d="M6069.49108,2763.13411q-41.20312,0-65.90625-11.65625-24.70312-11.67187-28.82813-31.10937-4.125-19.45312,12.375-44.07813l557.98438-787.96875q20.57813-31.07812,52.5-44.04687,31.92188-12.96095,71.04687-12.96875,37.05469,0,68.96875,12.96875,31.92188,12.96093,52.51563,44.04687l557.98437,787.96875q18.51563,24.63282,14.40625,44.71875-4.125,20.10938-26.76562,31.10938-22.64062,11.01563-63.8125,11.01562-45.32812,0-72.07813-14.25-26.76562-14.25-47.35937-44.07812l-144.125-209.95313,96.78125,36.29688H6228.02233l94.71875-36.29688L6180.67858,2704.806q-20.60157,31.125-45.3125,44.71875Q6110.663,2763.11849,6069.49108,2763.13411ZM6664.538,1989.41536,6353.6317,2453.38411l-51.48437-31.10937h726.84375l-47.35938,31.10937L6668.663,1989.41536Z"/><path class="cls-1" d="M7694.03893,2763.13411q-47.36719,0-74.125-16.84375-26.76562-16.85156-26.76563-47.96875v-799.625q0-32.39062,25.73438-49.89062,25.73438-17.48437,68.96875-17.5,37.05468,0,56.625,8.42187,19.54688,8.4375,46.32812,30.45313l848.32813,703.73437H8587.6483V1894.806q0-29.8125,25.73438-46.65625,25.73438-16.82812,73.09375-16.84375,49.40625,0,74.125,16.84375,24.70313,16.85155,24.71875,46.65625v804.8125q0,29.8125-23.6875,46.67187-23.67187,16.82813-62.79688,16.84375-37.07812,0-60.75-9.07812-23.67187-9.07032-50.4375-31.10938l-844.20312-702.42187h47.35937v677.79687q0,31.125-24.70312,47.96875Q7741.39831,2763.11849,7694.03893,2763.13411Z"/><path class="cls-1" d="M9802.4608,2765.71224q-236.78906,0-399.45312-56.375Q9240.35143,2652.97,9156.9608,2547.99349t-83.39062-250.125q0-108.86719,48.39062-195.04688,48.375-86.17968,140.01563-147.75,91.61718-61.54687,224.42187-93.95312,132.79688-32.39062,301.65625-32.40625a1462.43673,1462.43673,0,0,1,242.95313,20.09375q119.4375,20.08593,218.26562,65.4375,28.82813,12.98438,37.0625,29.8125a40.17451,40.17451,0,0,1,1.03125,34.34375q-7.21875,17.5078-26.76562,30.46875-19.57032,12.96093-47.35938,15.54687-27.79687,2.57813-60.75-10.375a766.13865,766.13865,0,0,0-168.84375-51.1875q-88.54687-16.1953-195.59375-16.20312-160.61718,0-270.76562,41.46875-110.15625,41.48438-165.75,119.89062-55.59375,78.42188-55.59375,189.85938,0,172.35938,129.71875,261.79687,129.70313,89.4375,385.03125,89.42188a1491.60917,1491.60917,0,0,0,182.21875-11.01563,1406.47169,1406.47169,0,0,0,171.9375-31.76562l-43.23438,67.39062V2371.74349h-265.625q-41.17968,0-64.85937-13.60938-23.67187-13.59375-23.67188-38.23437,0-24.60937,23.67188-36.9375,23.67188-12.30469,64.85937-12.3125h356.21875q43.21875,0,65.875,14.26562,22.64063,14.25,22.65625,41.45313v326.59375q0,23.34375-13.39062,39.53125-13.38282,16.21875-44.25,23.98437-88.54687,22.03125-207.96875,35.64063A2060.93722,2060.93722,0,0,1,9802.4608,2765.71224Z"/><path class="cls-1" d="M11052.2733,2763.13411q-51.49218,0-79.28125-18.14062-27.79687-18.14062-27.79687-51.84375V2282.306l47.35937,85.54687-508.57812-444.53125q-22.66407-19.42968-20.59375-40.8125,2.0625-21.375,27.79687-36.29687,25.73438-14.90625,68.98438-14.90625,32.92968,0,60.73437,10.375,27.79688,10.35938,52.5,32.39062l407.6875,356.40625h-49.40625l407.6875-356.40625q26.76563-23.3203,51.46875-33.04687,24.70313-9.70312,61.76563-9.71875,43.24218,0,66.92187,13.60937,23.67188,13.6172,24.70313,35,1.03125,21.375-25.73438,44.70313l-504.45312,443.23437,43.23437-85.54687v410.84375Q11157.2733,2763.13412,11052.2733,2763.13411Z"/><path class="cls-1" d="M12431.77916,2765.71224q-146.20312,0-257.375-23.96875-111.1875-23.95312-186.34375-71.92188-75.16405-47.95312-114.28125-119.23437-39.11718-71.27344-39.10937-164.59375V1898.69661q0-33.70312,27.79687-50.54687,27.79688-16.82812,79.26563-16.84375,51.46875,0,79.28125,16.84375,27.79688,16.85155,27.79687,50.54687v484.70313q0,133.5,97.79688,199.59375,97.80468,66.09375,285.17187,66.09375,189.42188,0,286.20313-66.09375,96.77343-66.09375,96.78125-199.59375V1898.69661q0-33.70312,27.79687-50.54687,27.79688-16.82812,77.20313-16.84375,51.46875,0,78.25,16.84375,26.76563,16.85155,26.76562,50.54687v487.29688q0,124.42968-66.92187,209.3125-66.91407,84.89063-198.6875,127.64062Q12627.38072,2765.72006,12431.77916,2765.71224Z"/><path class="cls-1" d="M13469.49694,2754.056q-55.59375,0-85.45313-18.78125-29.85937-18.79687-29.84375-53.79688V1912.94661q0-34.96875,29.84375-53.78125,29.85938-18.79687,85.45313-18.79687h751.54687q43.21875,0,65.875,13.60937,22.64063,13.6172,22.65625,39.53125,0,27.23438-22.65625,41.48438-22.64062,14.25-65.875,14.25h-660.95312v286.40625h615.65625q45.28125,0,66.90625,14.26562,21.60938,14.25,21.625,40.17188,0,27.23438-21.625,40.82812-21.60937,13.61719-66.90625,13.60938h-615.65625v300.67187h660.95312q43.21875,0,65.875,14.25,22.64063,14.25,22.65625,40.17188,0,27.23438-22.65625,40.82812-22.64062,13.61719-65.875,13.60938Z"/><path class="cls-1" d="M14667.83092,2763.13411q-47.36718,0-74.125-16.84375-26.76562-16.85156-26.76562-47.96875v-799.625q0-32.39062,25.73437-49.89062,25.73438-17.48437,68.96875-17.5,37.05469,0,56.625,8.42187,19.54688,8.4375,46.32813,30.45313l848.32812,703.73437h-51.48437V1894.806q0-29.8125,25.73437-46.65625,25.73438-16.82812,73.09375-16.84375,49.40625,0,74.125,16.84375,24.70313,16.85155,24.71875,46.65625v804.8125q0,29.8125-23.6875,46.67187-23.67187,16.82813-62.79687,16.84375-37.07812,0-60.75-9.07812-23.67187-9.07032-50.4375-31.10938l-844.20313-702.42187h47.35938v677.79687q0,31.125-24.70313,47.96875Q14715.1903,2763.11849,14667.83092,2763.13411Z"/></g><g id="WHITE"><path class="cls-2" d="M1269.06806,3089.72264c-98.35275-112.96871-233.47625-183.14706-378.08694-211.00031-44.06345-8.4867-68.76557-22.76988-80.45023-68.13383-65.6962-255.0554-133.7354-509.50778-201.279-764.08576-20.22672-76.23608-50.6269-150.96448-46.313-231.36523,4.42424-82.45665,31.12037-157.51857,91.17732-217.58069q467.66271-467.70462,935.58209-935.152c91.06966-90.7316,203.29985-114.55428,324.71592-83.74259,223.38054,56.68725,445.583,118.01809,668.26127,177.47137,72.53266,19.36559,144.89632,39.37773,217.58464,58.13642,27.70591,7.15,37.95223,22.36823,44.529,51.47014,63.03849,278.93821,233.32536,460.20078,506.02867,545.0089,29.98925,9.32637,62.0492,20.25013,92.3619,18.28709,42.14334-2.72924,47.76793,23.29943,55.30464,51.4314q65.434,244.25136,130.38348,488.63269c37.99248,142.52993,76.83458,284.84066,113.69205,427.66349,35.46957,137.44581,5.32029,256.2789-97.615,358.34568-295.23926,292.7493-590.42638,585.607-881.4578,882.51561-117.37081,119.74114-249.73892,145.30694-405.12015,102.23336-210.68321-58.40327-422.07806-114.24265-633.216-171.002-80.11847-21.53837-160.2161-43.19336-240.65973-63.46-23.64185-5.95628-30.02246-19.55375-32.94327-42.08867-17.47279-134.80435-77.16918-250.85316-162.1407-355.02506-5.67988-6.963-13.12717-12.84677-20.33909-18.56009"/><path class="cls-1" d="M4338.01865,2626.34087c-1.5169,127.15127-44.68831,238.51458-133.80984,329.2003-153.96205,156.66569-310.48678,310.80968-465.02567,466.91308-18.1962,18.38-28.51042,19.48925-46.70251.33q-107.92717-113.66655-218.90053-224.41471c-18.62853-18.53029-18.06115-28.65438.29388-46.73318,109.35691-107.71221,217.18844-216.9704,326.11013-325.12705,115.38764-114.57677,151.44642-249.538,109.10886-406.6491-84.13585-312.22061-166.81566-624.83427-251.62364-936.87072-9.75895-35.90678-10.05453-50.0806,34.249-57.4706,102.8924-17.163,196.38325-60.95732,279.63918-124.58145,17.98259-13.74211,25.8978-16.86306,33.06717,10.15416q159.95859,602.75373,321.47918,1205.09248C4335.45282,2552.01048,4340.10874,2588.83949,4338.01865,2626.34087Z"/><path class="cls-1" d="M2970.24068,320.67841c-71.829,106.48358-114.6372,217.335-127.06794,339.52085-2.59662,25.52458-21.11434,12.13381-33.21314,8.94672q-174.26278-45.90557-348.30977-92.62936c-186.20992-49.71811-372.22392-100.18151-558.661-149.03048-144.03337-37.73855-270.25642-1.284-375.84982,101.26007-119.62616,116.17162-236.67327,235.01629-353.79385,353.73251-18.48317,18.73493-27.76253,22.84237-47.59177.15554-69.6155-79.64805-141.6066-157.24033-213.61856-234.75605-14.85108-15.98611-15.06233-25.5393.93206-41.38908,158.88215-157.44605,314.58235-318.18207,475.99128-472.97337,121.93-116.93092,271.66529-159.90928,435.94326-117.59246C2205.88358,114.03573,2585.29554,217.85431,2970.24068,320.67841Z"/><path class="cls-1" d="M1326.27377,4008.29594c67.27675-91.67014,110.81138-189.78417,131.7395-297.83632,10.51934-54.31206,11.24554-54.14912,64.01636-40.04077,307.41165,82.185,614.32744,166.2966,922.472,245.63617,133.31277,34.32478,255.79268,2.63517,356.32464-92.87813,101.69727-96.62065,199.9694-196.88976,298.28153-296.99471,20.19223-20.56048,30.97878-23.19856,52.04729-.64109,71.331,76.372,144.68076,150.885,218.34819,225.02671,15.60492,15.70551,16.61408,24.85754.37219,40.94493C3227.8565,3932.181,3089.455,4076.63175,2944.34506,4214.008c-119.61415,113.2398-268.23676,153.52812-426.80769,113.04921-392.73039-100.25407-783.43069-208.46261-1174.93927-313.50206C1338.78489,4012.53238,1335.06963,4011.144,1326.27377,4008.29594Z"/><path class="cls-1" d="M0,1707.79882c3.05548-116.26946,44.60976-229.45275,135.055-321.38889,136.40517-138.654,274.876-275.27412,411.77629-413.4448,14.88648-15.02472,23.07084-18.98631,39.13609-.83858,70.96733,80.16567,142.42009,159.96545,216.052,237.6663,20.05529,21.16363,12.95139,30.97117-3.28748,47.02087-87.52116,86.5019-174.1404,173.91548-261.29349,260.791q-170.955,170.41143-108.12153,403.28325,121.93441,453.05385,243.72177,906.14674c12.53912,46.61171,12.67939,46.97929-35.3778,55.00529-102.04885,17.04273-195.29541,55.75694-279.67231,115.09105-21.15653,14.87723-27.6919,15.34568-35.06488-12.49472Q169.36717,2404.80368,13.63875,1825.54625C4.39164,1790.93354.23234,1755.52067,0,1707.79882Z"/><path class="cls-1" d="M2770.45811,2929.632c-278.94717,96.88713-566.29716,125.08591-859.88882,109.46866-147.95642-7.87009-296.42906-14.21481-444.25479,3.64408-49.28931,5.95458-100.656,10.66965-135.32152,54.62291q-3.79908-3.55267-7.59878-7.10534c2.30238-66.758,41.79478-109.30911,94.49455-142.04765,67.51971-41.94586,143.99179-58.62221,220.74344-72.1678,274.3692-48.42247,549.0975-94.81765,823.39942-143.61183,101.27585-18.01576,201.28068-42.53821,300.423-70.22682,8.89989,7.38369,10.44806,18.00824,12.42032,28.4,13.20422,69.57095,7.19434,139.78492,6.80833,209.79886C2781.6234,2911.27852,2776.68452,2920.84008,2770.45811,2929.632Z"/><path class="cls-1" d="M1371.17294,3503.19671c-6.07162-40.89835-9.90727-84.20157-36.53056-119.60144l-.00246-.009c-65.79649-181.618-192.13453-301.07928-373.62548-363.91745-33.974-8.67573-67.48146-20.76321-101.9958-25.47948-239.97773-32.79084-439.65566,44.06576-586.04848,236.29048-134.03722,176.00149-161.16559,373.66812-84.4205,583.2853l-.00492.0041C254.41093,3995.771,380.494,4116.26943,562.37111,4179.784c89.05313,33.71573,180.05606,43.05807,275.14638,31.67081C1178.45544,4170.62537,1423.12648,3853.16707,1371.17294,3503.19671Z"/><path class="cls-1" d="M4147.53077,539.642l.00082-.00246c-24.41439-62.05021-51.93468-122.41136-93.49472-175.35456-72.1182-91.87125-159.98242-162.04373-272.41026-198.56774-109.42523-47.66117-223.96522-51.678-337.78858-27.79251-378.46556,79.41808-589.48647,474.1659-447.03016,830.77117l.00246-.00164-.00082.00164c9.353,20.34341,17.59663,41.28618,28.23446,60.93346,76.272,140.86072,189.39677,238.50841,341.80545,289.66251,61.031,28.537,126.9579,36.09681,192.5035,37.23242,290.71776,5.036,547.382-199.98376,609.20836-486.76419C4192.53453,758.56135,4191.02093,647.34948,4147.53077,539.642Z"/><path class="cls-1" d="M2722.42274,2350.07977c-187.27751,77.34041-383.47116,115.6725-584.07631,137.35537-224.71631,24.289-449.42075,12.33276-674.24944,6.33526-89.93139-2.39924-179.94388-5.38308-269.63509,5.732-80.41732,9.96576-154.256,34.85312-213.01074,95.44662-21.571-86.05939,26.89211-200.14856,112.3567-267.29286,84.82022-66.638,184.09436-99.289,288.8835-110.41793,160.34484-17.02818,321.56125-25.66763,482.128-40.8317,255.50159-24.13038,508.73766-61.55707,754.05731-140.79651,4.99707-1.61388,10.31518-2.23485,15.48344-3.31917,11.81778,5.84619,15.78775,17.32739,19.77469,28.4587,29.4386,82.184,52.44567,166.21367,70.86083,251.49158C2727.67587,2324.65194,2732.64094,2338.13764,2722.42274,2350.07977Z"/><path class="cls-1" d="M2461.76877,1693.45575c-161.52326,80.11681-333.434,123.09244-511.92227,141.206-205.07147,20.81144-409.48062,3.74095-613.87547-12.91844-67.3056-5.48588-135.04474-6.898-202.26014-1.35856-73.88662,6.08915-142.98474,26.39007-189.15582,93.62094-25.247-75.83928,14.52454-180.29123,87.81146-240.13356,75.69969-61.81263,168.2734-79.42965,259.41641-100.45083,178.14122-41.08654,359.71728-57.1406,541.35105-72.74609,144.712-12.433,289.18392-26.812,428.79316-70.50058,31.71977,9.6554,44.12287,39.57317,63.641,61.68413a1403.73961,1403.73961,0,0,1,121.56264,159.14785C2455.40028,1663.6146,2468.21679,1675.44229,2461.76877,1693.45575Z"/><path class="cls-1" d="M2722.42274,2350.07977c-21.01226-108.23933-53.71233-213.241-88.0515-317.79015,85.27643-37.50768,173.81-67.44351,253.673-117.35778,106.2773-66.4232,193.23793-147.9107,223.11976-274.8241,27.91274-118.54988-11.31828-226.094-60.69694-331.13691-4.92482-10.477-10.60518-20.59891-17.30561-33.53117,38.6777,25.5,98.695,106.49828,137.41149,185.633,101.34108,207.13763,93.67246,407.57133-43.78049,596.2142C3024.24871,2198.01956,2882.37406,2287.20973,2722.42274,2350.07977Z"/><path class="cls-1" d="M2461.76877,1693.45575c-55.25833-96.37855-129.10712-178.64656-199.83943-263.28144,81.22038-34.32927,160.92411-70.51634,230.25858-127.31711,118.61493-97.17216,116.87035-228.73274-5.725-322.82153-29.1954-22.40683-62.52372-37.10282-92.46981-57.69961,151.43818,38.39167,288.27283,101.40883,374.3613,240.40948,56.62077,91.421,58.25793,186.90133,1.34547,280.26271C2696.73226,1562.70756,2588.02128,1638.99553,2461.76877,1693.45575Z"/><path class="cls-1" d="M2770.45811,2929.632c-.51452-89.20568,3.11624-178.53551-8.00322-267.42379,81.52589-32.59622,164.75272-61.23265,240.97627-105.99188,171.04411-100.43787,294.84621-236.9138,334.74645-437.53832,8.48574-42.6689,14.88575-85.64307,15.58261-130.10989,13.97431,28.102,17.75928,58.52814,20.63619,89.333C3411.34845,2473.60272,3126.16251,2811.095,2770.45811,2929.632Z"/><path class="cls-1" d="M2031.70567,1230.37091c-106.35816,34.57913-214.75089,39.34888-324.3664,20.644-74.05865-12.6373-147.53671-28.92134-221.80691-40.00585-71.98662-10.74385-144.4075-12.31978-216.04532,10.47276,131.56783-110.10429,284.37911-165.93519,452.99076-182.79267,22.33178-5.78619,41.65075,3.53909,60.07719,13.54182,78.92964,42.84676,154.95969,90.37779,226.84532,144.305C2020.51031,1204.87058,2035.0811,1212.00951,2031.70567,1230.37091Z"/><path class="cls-1" d="M2031.70567,1230.37091c-57.71274-56.7701-128.4693-94.93343-196.55008-136.72228-35.64888-21.88183-70.2504-46.74725-112.70883-54.95158,45.10669-10.2897,91.1264-12.1823,136.99784-13.78212,28.133-.98115,54.46508-7.67708,80.34773-17.2287,16.63264-6.138,33.83484-16.36988,33.58594-34.95642-.28066-20.96286-19.52519-29.36948-37.75437-34.96138-5.9626-1.829-12.35146-2.268-22.65621-4.056,108.5981-35.60818,224.49421-.66485,268.26694,67.3221,34.65657,53.82821,34.69827,104.19226-7.26224,152.15416C2136.67532,1195.81979,2088.40548,1221.73922,2031.70567,1230.37091Z"/><path class="cls-1" d="M2754.58162,3167.39521c-280.95313,135.69178-573.967,194.129-884.93155,138.95664,309.92921-34.71685,605.35638-122.41534,892.77378-240.00674C2779.85094,3101.58376,2767.54822,3134.51531,2754.58162,3167.39521Z"/><path class="cls-1" d="M2754.58162,3167.39521c-5.01865-34.27653,9.20031-67.05944,7.84368-101.05083,55.9324-28.80713,112.41108-56.61868,167.5923-86.80256,32.32061-17.67921,62.9832-38.52751,93.63924-59.073,30.82384-20.6582,57.83046-46.05621,86.21577-69.85415C3030.86768,2999.85717,2900.08994,3091.77779,2754.58162,3167.39521Z"/></g></g></g></svg>